<?xml version="1.0" encoding="utf-8"?>
<!-- Generator: Adobe Illustrator 19.1.0, SVG Export Plug-In . SVG Version: 6.00 Build 0)  -->
<svg version="1.1" id="Calque_1" xmlns="http://www.w3.org/2000/svg" xmlns:xlink="http://www.w3.org/1999/xlink" x="0px" y="0px"
	 viewBox="0 0 140.8 49.4" style="enable-background:new 0 0 140.8 49.4;" xml:space="preserve">
<style type="text/css">
	.st0{fill:#FFFFFF;}
</style>
<path class="st0" d="M25,0c2.8,0,5.2,1,7.2,3c2,2,3,4.4,3,7.2v14.5h-5.8V10.2c0-1.2-0.4-2.3-1.3-3.2c-0.8-0.9-1.9-1.3-3.1-1.3
	c-1.2,0-2.3,0.4-3.1,1.3C21,7.9,20.5,9,20.5,10.2v14.5h-5.8V10.2c0-1.2-0.4-2.3-1.3-3.2c-0.9-0.9-1.9-1.3-3.2-1.3
	C9,5.8,8,6.2,7.1,7.1C6.2,7.9,5.8,9,5.8,10.2v14.5H0V10.2C0,7.4,1,5,3,3c2-2,4.4-3,7.2-3c2.9,0,5.4,1,7.4,3.1C19.6,1,22.1,0,25,0z"
	/>
<path class="st0" d="M42,21.1c-2.4-2.4-3.7-5.3-3.7-8.7c0-3.4,1.2-6.3,3.7-8.7C44.4,1.2,47.3,0,50.7,0c3.4,0,6.3,1.2,8.7,3.7
	c2.4,2.4,3.6,5.3,3.6,8.7c0,3.4-1.2,6.3-3.6,8.7c-2.4,2.4-5.3,3.6-8.7,3.6C47.3,24.7,44.4,23.5,42,21.1z M46.1,7.8
	c-1.2,1.3-1.9,2.8-1.9,4.6c0,1.8,0.6,3.3,1.9,4.6c1.3,1.3,2.8,1.9,4.6,1.9c1.8,0,3.3-0.6,4.6-1.9c1.3-1.3,1.9-2.8,1.9-4.6
	c0-1.8-0.6-3.3-1.9-4.6s-2.8-1.9-4.6-1.9C48.9,5.9,47.4,6.5,46.1,7.8z"/>
<path class="st0" d="M69.9,21.1c-2.4-2.4-3.7-5.3-3.7-8.7c0-3.4,1.2-6.3,3.7-8.7C72.3,1.2,75.2,0,78.6,0c3.4,0,6.3,1.2,8.7,3.7
	c2.4,2.4,3.6,5.3,3.6,8.7c0,3.4-1.2,6.3-3.6,8.7c-2.4,2.4-5.3,3.6-8.7,3.6C75.2,24.7,72.3,23.5,69.9,21.1z M74,7.8
	c-1.2,1.3-1.9,2.8-1.9,4.6c0,1.8,0.6,3.3,1.9,4.6c1.3,1.3,2.8,1.9,4.6,1.9c1.8,0,3.3-0.6,4.6-1.9c1.3-1.3,1.9-2.8,1.9-4.6
	c0-1.8-0.6-3.3-1.9-4.6c-1.3-1.3-2.8-1.9-4.6-1.9C76.8,5.9,75.3,6.5,74,7.8z"/>
<path class="st0" d="M91.4,0h6.2l5.6,15.4L108.8,0h6.2l-9,24.7h-5.6L91.4,0z"/>
<path class="st0" d="M134.2,22.9c-1.9,1.2-4.1,1.8-6.6,1.8c-3.4,0-6.3-1.2-8.7-3.6c-2.4-2.4-3.7-5.3-3.7-8.7c0-3.4,1.2-6.3,3.7-8.7
	c2.4-2.4,5.3-3.7,8.7-3.7c3.4,0,6.3,1.2,8.8,3.7c2.4,2.4,3.6,5.3,3.6,8.7v12.4h-5.8V22.9z M123.1,7.8c-1.2,1.3-1.9,2.8-1.9,4.6
	c0,1.8,0.6,3.3,1.9,4.6c1.3,1.3,2.8,1.9,4.6,1.9c1.8,0,3.3-0.6,4.6-1.9c1.3-1.3,1.9-2.8,1.9-4.6c0-1.8-0.6-3.3-1.9-4.6
	s-2.8-1.9-4.6-1.9C125.9,5.9,124.3,6.5,123.1,7.8z"/>
<g>
	<path class="st0" d="M110.9,40.2c-0.7,0.6-1.7,0.8-2.9,0.8h-2.4v5.8h-1V34.5h3.5c1.2,0,2.2,0.3,2.9,0.8c0.7,0.6,1,1.4,1,2.5
		C111.9,38.9,111.6,39.7,110.9,40.2z M110.1,36c-0.5-0.4-1.3-0.7-2.2-0.7h-2.5v5h2.4c1,0,1.7-0.2,2.3-0.6c0.5-0.4,0.8-1.1,0.8-1.9
		C110.9,37,110.7,36.4,110.1,36z"/>
</g>
<g>
	<path class="st0" d="M124.5,46.8l-2.2-3.4c-0.2-0.3-0.4-0.7-0.6-1c-0.2-0.3-0.4-0.6-0.6-0.8c-0.4-0.5-1.1-0.7-1.9-0.7h-1.9v5.9h-1
		V34.5h3.1c1.3,0,2.3,0.3,3.1,0.8c0.7,0.6,1.1,1.4,1.1,2.4c0,0.8-0.2,1.4-0.7,1.9c-0.5,0.5-1,0.9-1.6,1c0.3,0.2,0.7,0.6,1,1.1
		c0.2,0.3,0.4,0.5,0.5,0.8c0.2,0.3,0.3,0.5,0.5,0.8l2.3,3.5H124.5z M121.7,35.9c-0.6-0.4-1.3-0.6-2.3-0.6h-2.1v4.8h2
		c1,0,1.8-0.2,2.4-0.6c0.6-0.4,0.8-1,0.8-1.8C122.5,36.9,122.3,36.4,121.7,35.9z"/>
</g>
<g>
	<path class="st0" d="M138.2,44.5c-1.3,1.2-2.8,1.8-4.6,1.8c-1.9,0-3.4-0.6-4.6-1.8c-1.3-1.2-1.9-2.7-1.9-4.5c0-1.8,0.6-3.3,1.9-4.5
		c1.3-1.2,2.8-1.8,4.7-1.8c1.8,0,3.4,0.6,4.6,1.8c1.3,1.2,1.9,2.7,1.9,4.5C140.1,41.8,139.4,43.3,138.2,44.5z M137.4,36.2
		c-1.1-1.1-2.4-1.6-3.9-1.6s-2.8,0.5-3.9,1.6c-1.1,1.1-1.6,2.4-1.6,3.9c0,1.5,0.5,2.8,1.6,3.9c1.1,1.1,2.4,1.6,3.9,1.6
		c1.5,0,2.8-0.5,3.9-1.6c1.1-1.1,1.6-2.4,1.6-3.9S138.5,37.3,137.4,36.2z"/>
</g>
<rect x="0" y="48.4" class="st0" width="125.8" height="1"/>
<polygon class="st0" points="140.1,33.6 125,48.7 125,48.8 125.6,49.4 140.7,34.4 140.8,34.3 "/>
</svg>
